<?xml version="1.0" encoding="utf-8"?>
<!-- Generator: Adobe Illustrator 19.1.0, SVG Export Plug-In . SVG Version: 6.00 Build 0)  -->
<!DOCTYPE svg PUBLIC "-//W3C//DTD SVG 1.1//EN" "http://www.w3.org/Graphics/SVG/1.1/DTD/svg11.dtd">
<svg version="1.1" id="Laag_1" xmlns="http://www.w3.org/2000/svg" xmlns:xlink="http://www.w3.org/1999/xlink" x="0px" y="0px"
	 viewBox="0 0 445 453" style="enable-background:new 0 0 445 453;" xml:space="preserve">
<style type="text/css">
	.st0{fill:#69B2A8;}
	.st1{fill:none;stroke:#E52620;stroke-width:4.2034;stroke-miterlimit:10;}
	.st2{fill:none;stroke:#E52620;stroke-width:4;stroke-miterlimit:10;}
	.st3{fill:#5F5F5F;}
	.st4{fill:#FFFFFF;}
	.st5{fill:#FFFFFF;stroke:#E52620;stroke-width:4.2034;stroke-miterlimit:10;}
	.st6{fill:#FFFFFF;stroke:#E52620;stroke-width:4;stroke-miterlimit:10;}
</style>
<rect x="-1.4" y="-0.4" class="st0" width="445.5" height="451.5"/>
<g>
	<path class="st4" d="M98.9,368.9H83.8c-1.4,0-2.6-1.2-2.6-2.6v-23.9c0-1.4,1.2-2.6,2.6-2.6h15.1c0.9,0,1.6,0.7,1.6,1.7
		c0,0.9-0.7,1.6-1.6,1.6H84.8v9.4h13.8c0.9,0,1.6,0.7,1.6,1.7c0,0.9-0.7,1.6-1.6,1.6H84.8v10h14.1c0.9,0,1.6,0.7,1.6,1.6
		C100.5,368.2,99.8,368.9,98.9,368.9z"/>
	<path class="st4" d="M133,365.1l1.8,2c0.3,0.3,0.4,0.7,0.4,1c0,0.9-0.7,1.7-1.7,1.7c-0.4,0-0.9-0.2-1.2-0.5l-1.9-2.1
		c-2.2,1.4-4.8,2.2-7.9,2.2c-8.6,0-14.4-6.5-14.4-15.1c0-8.6,5.8-15.1,14.4-15.1c8.6,0,14.5,6.5,14.5,15.1
		C137,358.6,135.5,362.4,133,365.1z M122.5,342.5c-6.5,0-10.7,5-10.7,11.8c0,6.8,4.1,11.8,10.7,11.8c2.1,0,4-0.5,5.5-1.5l-3.2-3.5
		c-0.3-0.3-0.4-0.7-0.4-1c0-0.8,0.7-1.7,1.7-1.7c0.4,0,0.9,0.2,1.2,0.5l3.3,3.5c1.7-2.1,2.7-4.9,2.7-8.2
		C133.2,347.5,129,342.5,122.5,342.5z"/>
	<path class="st4" d="M157.8,369.4c-7.9,0-11.9-4.7-11.9-11.8v-16.3c0-1,0.8-1.7,1.9-1.7c1,0,1.7,0.8,1.7,1.7v16.2
		c0,5.3,2.9,8.7,8.3,8.7c5.4,0,8.3-3.4,8.3-8.7v-16.2c0-1,0.8-1.7,1.9-1.7c1,0,1.7,0.8,1.7,1.7v16.3
		C169.7,364.7,165.7,369.4,157.8,369.4z"/>
	<path class="st4" d="M181.6,369.1c-1,0-1.8-0.8-1.8-1.8v-26.1c0-1,0.8-1.7,1.9-1.7c1,0,1.7,0.8,1.7,1.7v26.1
		C183.4,368.3,182.6,369.1,181.6,369.1z"/>
	<path class="st4" d="M220.1,369.1c-1,0-1.8-0.8-1.8-1.8v-22.4l-9.8,23.7c-0.1,0.3-0.5,0.6-0.9,0.6c-0.3,0-0.7-0.2-0.8-0.6
		l-9.7-23.7v22.4c0,1-0.8,1.8-1.8,1.8c-1,0-1.8-0.8-1.8-1.8v-24.9c0-1.6,1.4-2.9,3-2.9c1.2,0,2.4,0.7,2.9,1.8l8.3,20.3l8.4-20.3
		c0.5-1.1,1.7-1.8,2.9-1.8c1.7,0,3,1.4,3,2.9v24.9C222,368.3,221.2,369.1,220.1,369.1z"/>
	<path class="st4" d="M243.9,369.4c-7.9,0-11.9-4.7-11.9-11.8v-16.3c0-1,0.8-1.7,1.9-1.7c1,0,1.7,0.8,1.7,1.7v16.2
		c0,5.3,2.9,8.7,8.3,8.7c5.4,0,8.3-3.4,8.3-8.7v-16.2c0-1,0.8-1.7,1.9-1.7c1,0,1.7,0.8,1.7,1.7v16.3
		C255.8,364.7,251.8,369.4,243.9,369.4z"/>
	<path class="st4" d="M287.8,369.1c-0.7,0-1.4-0.3-1.8-0.9l-16.5-22.6v21.7c0,1-0.8,1.8-1.8,1.8c-1,0-1.8-0.8-1.8-1.8v-25.7
		c0-1.1,1-2.2,2.3-2.2c0.7,0,1.5,0.3,1.9,1l16.2,22v-21.3c0-1,0.8-1.7,1.9-1.7c1,0,1.7,0.8,1.7,1.7v25.8
		C290,368.1,289.1,369.1,287.8,369.1z"/>
	<path class="st4" d="M310,368.9h-7.3c-1.4,0-2.6-1.2-2.6-2.6v-23.9c0-1.4,1.2-2.6,2.6-2.6h7.3c9,0,14.9,6.3,14.9,14.6
		C325,362.6,319.1,368.9,310,368.9z M310,343h-6.3v22.7h6.3c7.1,0,11.2-5.1,11.2-11.3C321.2,348,317.2,343,310,343z"/>
	<path class="st4" d="M347.2,369.4c-8.6,0-14.4-6.5-14.4-15.1c0-8.6,5.8-15.1,14.4-15.1c8.6,0,14.5,6.5,14.5,15.1
		C361.6,362.9,355.8,369.4,347.2,369.4z M347.2,342.5c-6.5,0-10.7,5-10.7,11.8c0,6.8,4.1,11.8,10.7,11.8c6.5,0,10.7-5.1,10.7-11.8
		C357.9,347.5,353.7,342.5,347.2,342.5z"/>
</g>
<g>
	<polygon class="st4" points="238.5,74 238.5,74 238.5,74 	"/>
	<path class="st4" d="M270.9,73.4c26,0,43.8,12,59.5,40.2c1.5,2.7,4.6,5.1,8,7.5l0.4,0.3c0.7,0.5,1.4,1,2.1,1.8l0.7,0.8h-1.1h-6.4
		c-1.1,0-1.7,0.2-2.1,0.6c-0.6,0.6-0.9,1.2-0.9,1.9l0.3,72.4L331,199c-2.9,0.4-10.1,0.8-14.5-2.4c-2.4-1.8-3.7-4.5-3.9-8.4
		c-0.1-1.4-1-2.5-2.3-2.7c-0.2,0-1.6-0.8-3.6-2.2l0.1,7.6c0.7,4.5,2.8,8.1,6.1,10.6c8.4,6.2,22,3,22.2,3c1.4-0.3,2.3-1.5,2.3-2.8
		l-0.3-71.7h10c0.1-0.1,0.2-0.2,0.4-0.3l1.1-0.4c0.9-0.1,1.7-0.6,2.2-1.4c0.5-0.8,0.6-1.7,0.3-2.6c-1.2-3.7-5.3-6.7-9.3-9.5
		c-2.7-1.9-5.4-3.9-6.3-5.4c-11.3-20.1-28.8-43.2-64.8-43.2c-9.4,0-20,2.3-31.6,6.9l9.8,2.7l-0.1-0.5
		C256.1,74.4,263.4,73.4,270.9,73.4z"/>
</g>
<g>
	<g>
		<path class="st4" d="M307.4,141.1c-3.5-2.5-7.5-5.4-8.6-7.4C277.2,95.2,251.5,78,215.5,78c-59.9,0-108.7,48.7-108.7,108.7
			c0,1.7,1.3,3,3,3c1.7,0,3-1.3,3-3c0-56.6,46.1-102.7,102.7-102.7c34.1,0,57.4,15.7,78,52.7c1.8,3.2,6.1,6.3,10.3,9.3
			c1.4,1,4.1,3,6.2,4.8l1,0.9l-2.9,0c-2.9,0-5.5,0.1-7.3,0.1c-1,0-1.7,0-2.1,0c-0.3,0-0.4,0-0.6,0c-0.1,0-0.3,0-0.4,0
			c-0.2,0-2.6,0.3-2.5,2.7l0.5,94.4l-0.4,0.1c-1.4,0.2-3.7,0.4-6.3,0.4c-4.4,0-10.4-0.7-14.6-3.8c-3.4-2.6-5.2-6.3-5.5-11.6
			c-0.1-1.3-1-2.5-2.4-2.8c0,0-4.8-1.2-9.8-8.5c-5.1-7.4-11.1-22.4-11.1-51.7c0-1.5-1.1-2.8-2.6-3c-2.7-0.4-5.2-0.5-7.5-0.5
			c-8.7,0-15.7,2.5-21.2,7.5c-10.5,9.6-10,23.2-10,23.8c0.3,12.5,5.5,22,10.9,32c7,13.1,15,27.9,15,53.4c0,1.7,1.3,3,3,3s3-1.3,3-3
			c0-27-8.4-42.5-15.7-56.2c-5.3-9.8-9.9-18.3-10.2-29.4c0-0.1-0.3-11.3,8-18.9c4.5-4.1,9.9-5.7,17.1-5.7c0,0,0,0,0,0
			c1.2,0,2.5-0.2,3.8-0.1l0.5-0.1l0,0.4c0.7,46.4,16.5,58.8,23.2,62.1l0.2,0.1l0,0.3c0.8,5.9,3.4,10.6,7.7,13.8
			c5.5,4.1,12.7,5,17.8,5c5.5,0,9.7-0.9,10.2-1c1.4-0.3,2.3-1.5,2.3-2.9l-0.1-93.7l0.5,0c3.1,0,8-0.1,14.8-0.2c1.6,0,2.9-1.4,2.9-3
			C319.1,149.6,313.4,145.5,307.4,141.1z"/>
		<path class="st4" d="M235.4,168c-8.6,0-15.4,2.4-20.9,7.4c-10.4,9.5-9.8,22.8-9.8,23.4c0.3,12.3,5.4,21.8,10.8,31.8
			c7.1,13.1,15.1,28,15.1,53.6c0,1.4,1.1,2.5,2.5,2.5s2.5-1.1,2.5-2.5c0-26.9-8.3-42.4-15.7-56c-5.3-9.9-9.9-18.4-10.2-29.6
			c0-0.1-0.3-11.5,8.2-19.3c4.4-4.1,9.8-5.9,17.5-5.9c0.5,0,0.9,0,1.4-0.1c0.8,0,1.5-0.1,2.4,0l1-0.2l0,1
			c0.7,46.1,16.3,58.4,22.9,61.6l0.5,0.2l0.1,0.5c0.8,5.8,3.3,10.3,7.5,13.5c5.3,4,12.5,4.9,17.5,4.9c5.4,0,9.6-0.9,10-1
			c1.1-0.3,1.9-1.3,1.9-2.4l-0.1-94.3l1,0c3.1,0,8.2-0.1,14.8-0.2c1.3,0,2.4-1.1,2.4-2.5c0-4.7-5.6-8.7-11.6-13l0,0l0.3-0.4
			l-0.3,0.4c-3.5-2.5-7.5-5.4-8.7-7.5c-21.5-38.4-47-55.5-82.8-55.5c-59.6,0-108.2,48.5-108.2,108.2c0,1.4,1.1,2.5,2.5,2.5
			c1.4,0,2.5-1.1,2.5-2.5c0-56.9,46.3-103.2,103.2-103.2c34.3,0,57.7,15.8,78.5,52.9c1.7,3.1,6,6.2,10.2,9.2c1.4,1,4.1,3,6.2,4.8
			l2,1.7l-4.3,0.1c-2.9,0-5.5,0.1-7.3,0.1c-1,0-1.8,0-2.2,0c-0.2,0-0.3,0-0.4,0c-0.2,0-0.4,0-0.5,0c-0.3,0-2.1,0.3-2,2.2l0.5,94.9
			l-0.9,0.1c-1.5,0.2-3.7,0.4-6.4,0.4c-4.4,0-10.6-0.7-14.9-3.9c-3.5-2.6-5.4-6.6-5.7-12c-0.1-1.1-0.9-2.1-2-2.3
			c-0.1,0-5-1.2-10.1-8.8c-5.1-7.5-11.2-22.6-11.2-52c0-1.2-0.9-2.3-2.2-2.5C240.2,168.2,237.7,168,235.4,168z"/>
	</g>
</g>
</svg>
